ModelForces
version=1
nRows=4
nColumns=94
inDegrees=yes

This file contains the forces exerted on a model during a simulation.

A force is a generalized force, meaning that it can be either a force (N) or a torque (Nm).

Units are S.I. units (second, meters, Newtons, ...)
Angles are in degrees.

endheader 
time	addbrev_l	addlong_l	addmagDist_l	addmagIsch_l	addmagMid_l	addmagProx_l	bflh_l	bfsh_l	edl_l	ehl_l	fdl_l	fhl_l	gaslat_l	gasmed_l	glmax1_l	glmax2_l	glmax3_l	glmed1_l	glmed2_l	glmed3_l	glmin1_l	glmin2_l	glmin3_l	grac_l	iliacus_l	perbrev_l	perlong_l	piri_l	psoas_l	recfem_l	sart_l	semimem_l	semiten_l	soleus_l	tfl_l	tibant_l	tibpost_l	vasint_l	vaslat_l	vasmed_l	addbrev_r	addlong_r	addmagDist_r	addmagIsch_r	addmagMid_r	addmagProx_r	bflh_r	bfsh_r	edl_r	ehl_r	fdl_r	fhl_r	gaslat_r	gasmed_r	glmax1_r	glmax2_r	glmax3_r	glmed1_r	glmed2_r	glmed3_r	glmin1_r	glmin2_r	glmin3_r	grac_r	iliacus_r	perbrev_r	perlong_r	piri_r	psoas_r	recfem_r	sart_r	semimem_r	semiten_r	soleus_r	tfl_r	tibant_r	tibpost_r	vasint_r	vaslat_r	vasmed_r	lumbar_extension	lumbar_bending	lumbar_rotation	arm_flex_l	arm_add_l	arm_rot_l	arm_flex_r	arm_add_r	arm_rot_r	elbow_flex_l	elbow_flex_r	pro_sup_l	pro_sup_r	
          6.32000000	          2.26562016	          0.37656988	          5.13146170	          8.06672345	          4.32241856	          5.18583036	          0.05626899	          0.46266893	          0.03173716	         17.98167513	          6.56257789	          9.79223980	          0.00011464	          0.00488274	          8.87719276	         11.37195460	         15.59131210	         15.23514460	         20.51011091	         31.69630023	         12.24496578	         43.53783260	         22.81123144	          0.13456580	          0.00655779	          0.01097153	        118.28587687	         13.56665630	          4.10565899	       1142.39178758	          1.37720643	         -0.00006126	          0.36568360	          0.05037420	        151.53038337	        142.33400721	         31.20940871	         48.10948833	        138.49318972	         67.87891161	         16.14983238	         11.91967230	          3.71816586	          4.21668729	          1.49524237	          0.87547279	        270.06244123	          9.22526966	        190.48485985	          0.00476613	          9.61101967	         19.22664578	         20.20278047	         33.64134408	          5.33042492	          7.06656950	          3.03674169	          9.96306104	          3.76892621	          2.28125818	          5.03081469	          3.96189018	          1.24493603	          6.11358094	         15.85006363	          1.30705303	          0.00694087	          0.00123246	         20.14528211	          0.11096985	          3.04081759	        415.54686101	          4.07837101	         75.17732700	          2.77386367	         95.68639612	         35.78904105	         15.06883757	         25.07605032	         21.82346559	        116.09938102	        -71.26158213	          5.85644335	        -20.46734689	         84.27893133	         48.58557739	         92.47957419	        -32.39001969	        -34.82705070	         28.82567973	         35.72325241	          0.49312622	         -1.41723359	
          6.33000000	          1.38691977	          0.02297202	          6.91940101	          8.14560946	          3.17213628	          2.71602109	          2.98137005	          0.01764913	         80.91541136	          1.87878678	          2.81704185	          5.46794507	         15.86108740	          0.00496117	          9.26157305	         13.05790116	         14.25000046	         12.87851958	         16.15971668	         25.68807939	          7.36795925	         22.52730917	         12.90378342	          0.00598338	          0.04596102	          7.67452189	         24.25174327	          6.47643157	          0.03162019	         61.03077423	          0.58686846	          9.73338123	          0.01738432	         43.54797980	         22.00135728	         44.60905565	         18.01400915	         36.21271901	        103.47385004	         51.59449885	          7.17590661	          3.98754516	          6.77534647	         10.39547364	          1.92035479	          0.16097203	          0.02856996	          5.70599446	        178.95492907	         41.05544175	          8.09997138	         17.51790171	         18.21448157	         33.51189922	         11.69496602	         17.43626024	         10.73081801	         16.33737018	          8.33163020	          8.25167353	          8.87347687	          5.57143001	          3.11558181	          4.65036345	         12.13970545	          0.73733786	         84.94094445	         18.81911282	         12.48590510	        261.58285092	          2.33538287	          0.02195869	          6.62307206	        106.60236348	         41.77182488	        324.96671904	         30.30776612	         44.26976123	        436.01668875	         63.98443206	         20.57658107	        -38.45081196	         -9.72717435	         22.17822904	         25.88413068	         10.01540231	         32.63491417	         -5.24152441	         -8.92549848	         14.76231543	         11.41835061	         -0.09215715	         -0.43366497	
          6.34000000	         53.88597979	         57.53256134	          6.46594197	          7.63790895	        114.79415952	        126.67358255	         16.48491977	        135.82075848	         90.00345275	         35.82384992	          4.29421121	          8.94861186	         41.93403182	        133.30380316	          9.72124933	         14.45911519	         13.42055627	         11.73739720	         14.48881825	         23.48518101	          5.68802247	         16.38722809	          7.55690389	         72.58705371	         41.15896256	          2.10716225	         79.77652108	          5.14921172	        276.84316645	        312.36553732	         96.02949786	         13.27914204	        164.71830442	         18.42627378	         53.24047725	        140.08192962	         23.39334548	         29.09948315	         82.84517994	         41.85046403	          5.34766276	          3.61555259	          6.56767023	          9.75992339	          2.07231348	          0.17027659	        265.06668839	          4.31751970	        148.99821076	         40.98191718	          6.91033880	         15.08165791	         13.59556727	         24.34508554	         11.44683256	         16.76559965	         10.96420757	        178.61697044	          7.35493972	          8.34694818	         28.88161306	         12.61861838	          2.74605533	          3.83362149	         19.26386455	         11.73480929	        128.94666927	         17.88744368	         22.14500113	        269.17772402	          2.36371223	        354.03759385	          6.06023260	         90.79688714	         42.13721619	        436.90244640	         25.38849005	        102.78456051	        813.94886539	        214.08980987	         24.27737270	        -19.23579034	         -4.72333220	         53.96643269	        -17.23687673	        -19.39709315	         17.46442965	         -0.92413914	         -5.21063660	         11.71778682	          3.99222651	         -0.78436921	         -0.21168730	
          6.35000000	         55.64650014	         45.26335538	          6.77841165	          8.25821696	         94.87900252	        126.82481419	         18.50948927	        107.98255617	         84.63043527	         45.82994671	          3.24607303	          3.62338815	         20.29006895	         71.15781940	         10.11194223	         15.44103701	         12.80120147	         10.92324561	         13.69726828	         22.85126743	          4.63075505	         14.71936471	          8.23878971	         62.78329151	         35.69264410	         16.23514604	         47.17177563	          7.59884674	        230.04655448	         34.63365242	         88.35426988	         14.34670465	        155.67858175	        111.47861671	         42.26669590	        130.27443746	         16.82671228	         28.04538095	         80.02556135	         40.85160312	          5.37883937	          3.49605589	         12.05313724	         17.15120754	          3.79110244	          0.36577581	        105.70696917	          3.68593399	        138.07323213	         44.45136810	          5.26511451	         11.79586142	         12.51388663	         22.30139451	         10.99887032	         16.19561115	         10.68882733	        143.35807615	          6.33832110	          7.44731734	         35.02771234	          9.91694507	          2.03634909	          4.03528173	         17.45095134	         10.16101773	        124.93048479	         12.71694209	         19.74679705	        344.92695369	          2.02483510	         86.32599248	          6.94988609	         86.77172491	         11.58147382	        468.30708021	         19.85244255	        108.15874555	        869.96928148	        194.55753249	         -1.47278000	        -14.38573633	        -11.22130970	         25.04874437	        -16.03721759	        -14.49828181	          4.11154432	         -5.15899690	         -6.36257205	          1.94262093	         -0.84916156	         -0.45139890	         -0.08544302	
